<mxfile host="Electron" modified="2024-03-17T15:42:30.087Z" agent="Mozilla/5.0 (Windows NT 10.0; Win64; x64) AppleWebKit/537.36 (KHTML, like Gecko) draw.io/22.1.21 Chrome/120.0.6099.109 Electron/28.1.0 Safari/537.36" etag="iuwiXwPO_jZuPZMzoZNj" version="22.1.21" type="device">
  <diagram id="6GA0vRFOtYtbra54303n" name="第 1 页">
    <mxGraphModel dx="1434" dy="844" grid="1" gridSize="10" guides="1" tooltips="1" connect="1" arrows="1" fold="1" page="1" pageScale="1" pageWidth="827" pageHeight="1169" math="0" shadow="0">
      <root>
        <mxCell id="0" />
        <mxCell id="1" parent="0" />
        <mxCell id="-mRz4FD4wGQ6mzG_uX-9-11" value="" style="edgeStyle=orthogonalEdgeStyle;rounded=0;orthogonalLoop=1;jettySize=auto;html=1;" edge="1" parent="1" source="-mRz4FD4wGQ6mzG_uX-9-9" target="-mRz4FD4wGQ6mzG_uX-9-10">
          <mxGeometry relative="1" as="geometry" />
        </mxCell>
        <mxCell id="-mRz4FD4wGQ6mzG_uX-9-12" value="委托" style="edgeLabel;html=1;align=center;verticalAlign=middle;resizable=0;points=[];" vertex="1" connectable="0" parent="-mRz4FD4wGQ6mzG_uX-9-11">
          <mxGeometry x="-0.2" y="1" relative="1" as="geometry">
            <mxPoint as="offset" />
          </mxGeometry>
        </mxCell>
        <mxCell id="-mRz4FD4wGQ6mzG_uX-9-9" value="NettyServerHandler" style="rounded=0;whiteSpace=wrap;html=1;" vertex="1" parent="1">
          <mxGeometry x="330" y="160" width="120" height="60" as="geometry" />
        </mxCell>
        <mxCell id="-mRz4FD4wGQ6mzG_uX-9-16" value="" style="edgeStyle=orthogonalEdgeStyle;rounded=0;orthogonalLoop=1;jettySize=auto;html=1;" edge="1" parent="1" source="-mRz4FD4wGQ6mzG_uX-9-10" target="-mRz4FD4wGQ6mzG_uX-9-15">
          <mxGeometry relative="1" as="geometry" />
        </mxCell>
        <mxCell id="-mRz4FD4wGQ6mzG_uX-9-10" value="NettyRemotingAbstract#processMessageReceived" style="whiteSpace=wrap;html=1;rounded=0;" vertex="1" parent="1">
          <mxGeometry x="330" y="300" width="120" height="60" as="geometry" />
        </mxCell>
        <mxCell id="-mRz4FD4wGQ6mzG_uX-9-18" value="" style="edgeStyle=orthogonalEdgeStyle;rounded=0;orthogonalLoop=1;jettySize=auto;html=1;" edge="1" parent="1" source="-mRz4FD4wGQ6mzG_uX-9-15" target="-mRz4FD4wGQ6mzG_uX-9-17">
          <mxGeometry relative="1" as="geometry" />
        </mxCell>
        <mxCell id="-mRz4FD4wGQ6mzG_uX-9-20" value="" style="edgeStyle=orthogonalEdgeStyle;rounded=0;orthogonalLoop=1;jettySize=auto;html=1;" edge="1" parent="1" source="-mRz4FD4wGQ6mzG_uX-9-15" target="-mRz4FD4wGQ6mzG_uX-9-19">
          <mxGeometry relative="1" as="geometry" />
        </mxCell>
        <mxCell id="-mRz4FD4wGQ6mzG_uX-9-15" value="消息类型" style="rhombus;whiteSpace=wrap;html=1;rounded=0;" vertex="1" parent="1">
          <mxGeometry x="350" y="430" width="80" height="80" as="geometry" />
        </mxCell>
        <mxCell id="-mRz4FD4wGQ6mzG_uX-9-22" value="" style="edgeStyle=orthogonalEdgeStyle;rounded=0;orthogonalLoop=1;jettySize=auto;html=1;" edge="1" parent="1" source="-mRz4FD4wGQ6mzG_uX-9-17" target="-mRz4FD4wGQ6mzG_uX-9-21">
          <mxGeometry relative="1" as="geometry" />
        </mxCell>
        <mxCell id="-mRz4FD4wGQ6mzG_uX-9-17" value="请求类型" style="whiteSpace=wrap;html=1;rounded=0;" vertex="1" parent="1">
          <mxGeometry x="170" y="440" width="120" height="60" as="geometry" />
        </mxCell>
        <mxCell id="-mRz4FD4wGQ6mzG_uX-9-19" value="响应类型" style="whiteSpace=wrap;html=1;rounded=0;" vertex="1" parent="1">
          <mxGeometry x="490" y="440" width="120" height="60" as="geometry" />
        </mxCell>
        <mxCell id="-mRz4FD4wGQ6mzG_uX-9-24" value="" style="edgeStyle=orthogonalEdgeStyle;rounded=0;orthogonalLoop=1;jettySize=auto;html=1;" edge="1" parent="1" source="-mRz4FD4wGQ6mzG_uX-9-21" target="-mRz4FD4wGQ6mzG_uX-9-23">
          <mxGeometry relative="1" as="geometry" />
        </mxCell>
        <mxCell id="-mRz4FD4wGQ6mzG_uX-9-21" value="处理请求&lt;br&gt;processRequestCommand" style="whiteSpace=wrap;html=1;rounded=0;" vertex="1" parent="1">
          <mxGeometry x="170" y="580" width="120" height="60" as="geometry" />
        </mxCell>
        <mxCell id="-mRz4FD4wGQ6mzG_uX-9-30" value="" style="edgeStyle=orthogonalEdgeStyle;rounded=0;orthogonalLoop=1;jettySize=auto;html=1;" edge="1" parent="1" source="-mRz4FD4wGQ6mzG_uX-9-23" target="-mRz4FD4wGQ6mzG_uX-9-29">
          <mxGeometry relative="1" as="geometry" />
        </mxCell>
        <mxCell id="-mRz4FD4wGQ6mzG_uX-9-23" value="根据消息类型寻找处理器、线程池" style="whiteSpace=wrap;html=1;rounded=0;" vertex="1" parent="1">
          <mxGeometry x="170" y="720" width="120" height="60" as="geometry" />
        </mxCell>
        <mxCell id="-mRz4FD4wGQ6mzG_uX-9-32" value="" style="edgeStyle=orthogonalEdgeStyle;rounded=0;orthogonalLoop=1;jettySize=auto;html=1;" edge="1" parent="1" source="-mRz4FD4wGQ6mzG_uX-9-29" target="-mRz4FD4wGQ6mzG_uX-9-31">
          <mxGeometry relative="1" as="geometry" />
        </mxCell>
        <mxCell id="-mRz4FD4wGQ6mzG_uX-9-33" value="有" style="edgeLabel;html=1;align=center;verticalAlign=middle;resizable=0;points=[];fontSize=18;fontStyle=1" vertex="1" connectable="0" parent="-mRz4FD4wGQ6mzG_uX-9-32">
          <mxGeometry x="-0.2" relative="1" as="geometry">
            <mxPoint as="offset" />
          </mxGeometry>
        </mxCell>
        <mxCell id="-mRz4FD4wGQ6mzG_uX-9-37" value="" style="edgeStyle=orthogonalEdgeStyle;rounded=0;orthogonalLoop=1;jettySize=auto;html=1;" edge="1" parent="1" source="-mRz4FD4wGQ6mzG_uX-9-29" target="-mRz4FD4wGQ6mzG_uX-9-36">
          <mxGeometry relative="1" as="geometry" />
        </mxCell>
        <mxCell id="-mRz4FD4wGQ6mzG_uX-9-38" value="无" style="edgeLabel;html=1;align=center;verticalAlign=middle;resizable=0;points=[];fontSize=18;fontStyle=1" vertex="1" connectable="0" parent="-mRz4FD4wGQ6mzG_uX-9-37">
          <mxGeometry x="-0.2333" relative="1" as="geometry">
            <mxPoint as="offset" />
          </mxGeometry>
        </mxCell>
        <mxCell id="-mRz4FD4wGQ6mzG_uX-9-29" value="有无对应的处理器？" style="rhombus;whiteSpace=wrap;html=1;rounded=0;" vertex="1" parent="1">
          <mxGeometry x="190" y="850" width="80" height="80" as="geometry" />
        </mxCell>
        <mxCell id="-mRz4FD4wGQ6mzG_uX-9-34" style="edgeStyle=orthogonalEdgeStyle;rounded=0;orthogonalLoop=1;jettySize=auto;html=1;entryX=1;entryY=0.5;entryDx=0;entryDy=0;exitX=1;exitY=0.5;exitDx=0;exitDy=0;" edge="1" parent="1" source="-mRz4FD4wGQ6mzG_uX-9-31" target="-mRz4FD4wGQ6mzG_uX-9-23">
          <mxGeometry relative="1" as="geometry">
            <Array as="points">
              <mxPoint x="340" y="1050" />
              <mxPoint x="340" y="750" />
            </Array>
          </mxGeometry>
        </mxCell>
        <mxCell id="-mRz4FD4wGQ6mzG_uX-9-35" value="将任务提交到业务线程池处理" style="edgeLabel;html=1;align=center;verticalAlign=top;resizable=0;points=[];fontSize=16;horizontal=0;fontStyle=0" vertex="1" connectable="0" parent="-mRz4FD4wGQ6mzG_uX-9-34">
          <mxGeometry x="-0.01" y="-1" relative="1" as="geometry">
            <mxPoint as="offset" />
          </mxGeometry>
        </mxCell>
        <mxCell id="-mRz4FD4wGQ6mzG_uX-9-31" value="将消息封装成任务" style="whiteSpace=wrap;html=1;rounded=0;fillColor=#dae8fc;strokeColor=#6c8ebf;" vertex="1" parent="1">
          <mxGeometry x="170" y="1020" width="120" height="60" as="geometry" />
        </mxCell>
        <mxCell id="-mRz4FD4wGQ6mzG_uX-9-36" value="写回客户端&lt;br&gt;不支持的消息类型" style="whiteSpace=wrap;html=1;rounded=0;fillColor=#f8cecc;strokeColor=#b85450;" vertex="1" parent="1">
          <mxGeometry x="10" y="860" width="120" height="60" as="geometry" />
        </mxCell>
        <mxCell id="-mRz4FD4wGQ6mzG_uX-9-40" value="任务对象内容&lt;br&gt;先执行前置拦截、&lt;br&gt;处理请求、&lt;br&gt;后置拦截、&lt;br&gt;写回客户端" style="rounded=0;whiteSpace=wrap;html=1;fillColor=#dae8fc;strokeColor=#6c8ebf;" vertex="1" parent="1">
          <mxGeometry x="170" y="1080" width="120" height="90" as="geometry" />
        </mxCell>
      </root>
    </mxGraphModel>
  </diagram>
</mxfile>
